<?xml version="1.0" encoding="utf-8"?>
<!-- Generator: Adobe Illustrator 29.8.2, SVG Export Plug-In . SVG Version: 9.03 Build 0)  -->
<svg version="1.0" id="Слой_1" xmlns="http://www.w3.org/2000/svg" xmlns:xlink="http://www.w3.org/1999/xlink" x="0px" y="0px"
	 viewBox="0 0 70 70" style="enable-background:new 0 0 70 70;" xml:space="preserve">
<style type="text/css">
	.st0{fill:#C7AF86;}
</style>
<path class="st0" d="M31.99,69c0,0.03,0.18,0.14,0.12,0.18c-9.92,0.06-19.83,0.18-29.76,0.12c1.67-4.43,5.3-8.57,10.32-8.88l0-5.64
	c1.66,0.32,1.56-1.18,2.3-2.2c2.11-2.88,6.72-2.54,8.28,0.68c0.42,0.88,0.15,1.79,1.54,1.52c0.52-6.9,8-11.26,13.91-6.89
	c2.18,1.62,3.39,4.22,3.74,6.88l0.95-0.04c0.8-3.6,4.96-5.46,7.97-3.06c0.62,0.49,1.74,2.17,1.74,2.94v14.58H34.87v-15.3
	c0-0.34-0.69-0.92-1.05-0.99c-0.74-0.15-1.83,0.46-1.83,1.23V69z M17.71,63.42l2.1-0.04l0.18-0.14V57c0-1.15-2.28-1.14-2.28-0.24
	V63.42z M47.11,57v6.24c0.66,0.31,1.54-0.09,2.28,0.18v-6.66c0-0.09-0.45-0.54-0.6-0.59C48.09,55.96,47.25,56.22,47.11,57z"/>
<path class="st0" d="M60.19,47.46h-3.24v1.2h5.76l0,1.2l-0.91,0.11l-0.04,0.95c1.38,0.46,2.44-0.54,3.04,1.22
	c0.35,1.01,0.39,2.5,0.97,3.35c0.25,0.37,0.77,0.53,0.65,1.09h-1.8v8.1l2.88,4.5h-13.2v-14.4c0.74,0.03,2.04,0.07,2.17-0.89
	c0.11-0.83,0.1-4.21-0.06-4.99c-0.07-0.32-0.3-0.78-0.54-1.02c-0.18-0.18-1.07-0.66-1.26-0.66h-2.7v-4.26c0-0.1-1.47-0.97-0.55-1.63
	l9.35-0.09c1.06,0.75-0.52,1.61-0.52,1.72V47.46z M60.19,62.46V57.6c0-0.71-1.14-1.51-1.85-1.49c-0.93,0.02-1.87,1.07-1.87,1.97v4.2
	l0.18,0.18H60.19z"/>
<path class="st0" d="M43.63,25.45v2.16H23.35v-2.04c0-3.85,4.03-6.4,6.3-8.94c1.21-1.35,2.27-2.84,3.07-4.46
	c-0.45-0.26-0.76-0.76-0.76-1.32c0-0.61,0.36-1.13,0.87-1.38c0.01-1.65,0.03-3.32,0.04-4.96c-0.77-0.01-1.55,0.01-2.32,0l0-1.2h2.28
	V1.03l1.32,0v2.28h2.28v1.2c-0.77,0.02-1.54-0.02-2.31,0c0.01,1.66,0.02,3.3,0.03,4.96c0.52,0.24,0.87,0.77,0.87,1.38
	c0,0.55-0.29,1.03-0.72,1.3c0.18,0.78,2.33,3.6,2.79,4.12C39.31,18.78,43.63,21.73,43.63,25.45z"/>
<path class="st0" d="M60.75,39.54v1h-9.39v-0.94c0-1.78,1.86-2.97,2.92-4.14c0.56-0.62,1.05-1.31,1.42-2.07
	c-0.21-0.12-0.35-0.35-0.35-0.61c0-0.28,0.16-0.53,0.4-0.64c0.01-0.76,0.01-1.54,0.02-2.3c-0.36,0-0.72,0-1.08,0l0-0.56h1.06v-1.06
	l0.61,0v1.06h1.06v0.56c-0.36,0.01-0.72-0.01-1.07,0c0,0.77,0.01,1.53,0.01,2.3c0.24,0.11,0.41,0.36,0.41,0.64
	c0,0.25-0.13,0.48-0.33,0.6c0.08,0.36,1.08,1.67,1.29,1.91C58.75,36.45,60.75,37.81,60.75,39.54z"/>
<path class="st0" d="M44.47,28.99c0.4,0.63-0.84,1.64-0.84,1.74v10.38H23.47V30.79c0-0.07-0.81-0.31-0.94-0.93
	c-0.08-0.36,0.18-0.87,0.52-0.87H44.47z M27.67,39.31v-6.3c0-0.49-1.44-0.52-1.44,0.12v6.18H27.67z M34.27,39.31v-5.94
	c0-1.02-1.68-0.88-1.68-0.12v6.06H34.27z M40.87,39.31v-6.3c0-0.46-1.44-0.58-1.44,0.12v6.18H40.87z"/>
<path class="st0" d="M44.11,42.19v2.58l6.65,3.55c0.73,0.37,4.51-0.37,4.51,0.77v4.5l-1.2-0.06c-1.19-2.99-3.57-4.34-6.78-4.02
	c-1.35,0.13-2.78,1.11-3.66,2.1c-0.13,0.15-0.41,0.84-0.6,0.66c-0.78-3.27-3.79-6.29-7.08-7.02c-1.32-0.29-3.49-0.3-4.8,0
	c-3.39,0.77-6.07,3.81-7.14,7.02c-2.55-4.33-9.37-3.5-10.86,1.32h-1.8v-4.92l4.23,0.09l7.29-3.75v-2.82H44.11z"/>
</svg>
